<mxfile host="65bd71144e">
    <diagram id="JR51kfBBkCoqazEDlZEo" name="Page-1">
        <mxGraphModel dx="1054" dy="764" grid="1" gridSize="10" guides="1" tooltips="1" connect="1" arrows="1" fold="1" page="1" pageScale="1" pageWidth="850" pageHeight="1100" math="0" shadow="0">
            <root>
                <mxCell id="0"/>
                <mxCell id="1" parent="0"/>
                <mxCell id="2" value="UNCRYPETED&lt;br&gt;DATA" style="shape=card;whiteSpace=wrap;html=1;fillStyle=hatch;strokeColor=#001DBC;fillColor=#0050ef;fontColor=#ffffff;" parent="1" vertex="1">
                    <mxGeometry x="180" y="460" width="100" height="110" as="geometry"/>
                </mxCell>
                <mxCell id="4" value="PUBLIC KEY A" style="shape=delay;whiteSpace=wrap;html=1;fillStyle=hatch;strokeColor=#005700;fillColor=#008a00;fontColor=#ffffff;" parent="1" vertex="1">
                    <mxGeometry x="320" y="490" width="120" height="50" as="geometry"/>
                </mxCell>
                <mxCell id="8" value="CRYPETED&lt;br&gt;DATA" style="shape=note;whiteSpace=wrap;html=1;backgroundOutline=1;darkOpacity=0.05;fillStyle=hatch;strokeColor=#FF3399;fillColor=#FF0080;gradientColor=none;" parent="1" vertex="1">
                    <mxGeometry x="480" y="460" width="90" height="110" as="geometry"/>
                </mxCell>
                <mxCell id="17" value="" style="endArrow=classic;html=1;" parent="1" source="2" target="4" edge="1">
                    <mxGeometry width="50" height="50" relative="1" as="geometry">
                        <mxPoint x="630" y="500" as="sourcePoint"/>
                        <mxPoint x="680" y="450" as="targetPoint"/>
                    </mxGeometry>
                </mxCell>
                <mxCell id="18" value="" style="endArrow=classic;html=1;exitX=1;exitY=0.5;exitDx=0;exitDy=0;" parent="1" source="4" target="8" edge="1">
                    <mxGeometry width="50" height="50" relative="1" as="geometry">
                        <mxPoint x="630" y="500" as="sourcePoint"/>
                        <mxPoint x="680" y="450" as="targetPoint"/>
                    </mxGeometry>
                </mxCell>
                <mxCell id="19" value="" style="endArrow=classic;html=1;" parent="1" source="8" target="25" edge="1">
                    <mxGeometry width="50" height="50" relative="1" as="geometry">
                        <mxPoint x="630" y="500" as="sourcePoint"/>
                        <mxPoint x="640" y="515" as="targetPoint"/>
                    </mxGeometry>
                </mxCell>
                <mxCell id="23" value="UNCRYPETED&lt;br&gt;DATA" style="shape=card;whiteSpace=wrap;html=1;fillStyle=hatch;strokeColor=#001DBC;fillColor=#0050ef;fontColor=#ffffff;" vertex="1" parent="1">
                    <mxGeometry x="650" y="280" width="100" height="110" as="geometry"/>
                </mxCell>
                <mxCell id="25" value="PUBLIC KEY B" style="shape=delay;whiteSpace=wrap;html=1;fillStyle=hatch;strokeColor=#005700;fillColor=#008a00;fontColor=#ffffff;" vertex="1" parent="1">
                    <mxGeometry x="640" y="490" width="120" height="50" as="geometry"/>
                </mxCell>
                <mxCell id="26" value="" style="endArrow=classic;html=1;exitX=0.5;exitY=0;exitDx=0;exitDy=0;" edge="1" parent="1" source="25" target="23">
                    <mxGeometry width="50" height="50" relative="1" as="geometry">
                        <mxPoint x="580" y="525" as="sourcePoint"/>
                        <mxPoint x="650" y="525" as="targetPoint"/>
                    </mxGeometry>
                </mxCell>
                <mxCell id="27" value="PUBLIC KEY B" style="shape=delay;whiteSpace=wrap;html=1;fillStyle=hatch;strokeColor=#005700;fillColor=#008a00;fontColor=#ffffff;" vertex="1" parent="1">
                    <mxGeometry x="465" y="310" width="120" height="50" as="geometry"/>
                </mxCell>
                <mxCell id="28" value="CRYPETED&lt;br&gt;DATA" style="shape=note;whiteSpace=wrap;html=1;backgroundOutline=1;darkOpacity=0.05;fillStyle=hatch;strokeColor=#FF3399;fillColor=#FF0080;gradientColor=none;" vertex="1" parent="1">
                    <mxGeometry x="335" y="280" width="90" height="110" as="geometry"/>
                </mxCell>
                <mxCell id="29" value="PUBLIC KEY A" style="shape=delay;whiteSpace=wrap;html=1;fillStyle=hatch;strokeColor=#005700;fillColor=#008a00;fontColor=#ffffff;" vertex="1" parent="1">
                    <mxGeometry x="170" y="310" width="120" height="50" as="geometry"/>
                </mxCell>
                <mxCell id="30" value="" style="endArrow=classic;html=1;entryX=1;entryY=0.5;entryDx=0;entryDy=0;" edge="1" parent="1" source="23" target="27">
                    <mxGeometry width="50" height="50" relative="1" as="geometry">
                        <mxPoint x="450" y="525" as="sourcePoint"/>
                        <mxPoint x="490" y="525" as="targetPoint"/>
                    </mxGeometry>
                </mxCell>
                <mxCell id="31" value="" style="endArrow=classic;html=1;exitX=0;exitY=0.5;exitDx=0;exitDy=0;" edge="1" parent="1" source="27" target="28">
                    <mxGeometry width="50" height="50" relative="1" as="geometry">
                        <mxPoint x="470" y="410" as="sourcePoint"/>
                        <mxPoint x="595" y="345" as="targetPoint"/>
                    </mxGeometry>
                </mxCell>
                <mxCell id="32" value="" style="endArrow=classic;html=1;entryX=1;entryY=0.5;entryDx=0;entryDy=0;" edge="1" parent="1" source="28" target="29">
                    <mxGeometry width="50" height="50" relative="1" as="geometry">
                        <mxPoint x="670" y="355" as="sourcePoint"/>
                        <mxPoint x="605" y="355" as="targetPoint"/>
                    </mxGeometry>
                </mxCell>
                <mxCell id="33" value="" style="endArrow=classic;html=1;" edge="1" parent="1" source="29" target="2">
                    <mxGeometry width="50" height="50" relative="1" as="geometry">
                        <mxPoint x="680" y="365" as="sourcePoint"/>
                        <mxPoint x="615" y="365" as="targetPoint"/>
                    </mxGeometry>
                </mxCell>
            </root>
        </mxGraphModel>
    </diagram>
</mxfile>